<svg width="56" height="56" viewBox="0 0 56 56" fill="none" xmlns="http://www.w3.org/2000/svg">
<rect width="56" height="56" fill="url(#paint0_linear_220_6)"/>
<path d="M15.08 37L11.576 30.64H10.592V37H6.488V20.152H13.376C14.704 20.152 15.832 20.384 16.76 20.848C17.704 21.312 18.408 21.952 18.872 22.768C19.336 23.568 19.568 24.464 19.568 25.456C19.568 26.576 19.248 27.576 18.608 28.456C17.984 29.336 17.056 29.96 15.824 30.328L19.712 37H15.08ZM10.592 27.736H13.136C13.888 27.736 14.448 27.552 14.816 27.184C15.2 26.816 15.392 26.296 15.392 25.624C15.392 24.984 15.2 24.48 14.816 24.112C14.448 23.744 13.888 23.56 13.136 23.56H10.592V27.736ZM37.2163 37H33.1123L26.2483 26.608V37H22.1443V20.152H26.2483L33.1123 30.592V20.152H37.2163V37ZM53.0311 25.576C53.0311 26.552 52.8071 27.448 52.3591 28.264C51.9111 29.064 51.2231 29.712 50.2951 30.208C49.3671 30.704 48.2151 30.952 46.8391 30.952H44.2951V37H40.1911V20.152H46.8391C48.1831 20.152 49.3191 20.384 50.2471 20.848C51.1751 21.312 51.8711 21.952 52.3351 22.768C52.7991 23.584 53.0311 24.52 53.0311 25.576ZM46.5271 27.688C47.3111 27.688 47.8951 27.504 48.2791 27.136C48.6631 26.768 48.8551 26.248 48.8551 25.576C48.8551 24.904 48.6631 24.384 48.2791 24.016C47.8951 23.648 47.3111 23.464 46.5271 23.464H44.2951V27.688H46.5271Z" fill="black"/>
<defs>
<linearGradient id="paint0_linear_220_6" x1="0" y1="0" x2="50.5" y2="56" gradientUnits="userSpaceOnUse">
<stop stop-color="#FF0048"/>
<stop offset="1" stop-color="#FF5E00"/>
</linearGradient>
</defs>
</svg>
